<svg width="81" height="71" viewBox="0 0 81 71" fill="none" xmlns="http://www.w3.org/2000/svg">
<path d="M53.0039 37.4329L57.1129 38.0069" stroke="#FFDD02" stroke-width="2.5" stroke-linecap="round" stroke-linejoin="round"/>
<path d="M23.9399 33.3779L28.0479 33.9499" stroke="#FFDD02" stroke-width="2.5" stroke-linecap="round" stroke-linejoin="round"/>
<path d="M48.1189 45.7468L50.6189 49.0578" stroke="#FFDD02" stroke-width="2.5" stroke-linecap="round" stroke-linejoin="round"/>
<path d="M30.434 22.3259L32.934 25.6359" stroke="#FFDD02" stroke-width="2.5" stroke-linecap="round" stroke-linejoin="round"/>
<path d="M38.7859 48.1689L38.2119 52.2779" stroke="#FFDD02" stroke-width="2.5" stroke-linecap="round" stroke-linejoin="round"/>
<path d="M42.839 19.104L42.267 23.213" stroke="#FFDD02" stroke-width="2.5" stroke-linecap="round" stroke-linejoin="round"/>
<path d="M30.472 43.2839L27.162 45.7839" stroke="#FFDD02" stroke-width="2.5" stroke-linecap="round" stroke-linejoin="round"/>
<path d="M53.8919 25.5991L50.5819 28.0991" stroke="#FFDD02" stroke-width="2.5" stroke-linecap="round" stroke-linejoin="round"/>
<path d="M40.548 43.4649C44.8172 43.4649 48.278 40.004 48.278 35.7349C48.278 31.4657 44.8172 28.0049 40.548 28.0049C36.2788 28.0049 32.818 31.4657 32.818 35.7349C32.818 40.004 36.2788 43.4649 40.548 43.4649Z" stroke="#FFDD02" stroke-width="2.5" stroke-linejoin="round"/>
<path d="M65.683 47.1509C61.328 56.7489 51.658 63.4239 40.423 63.4239C25.118 63.4239 12.709 51.0179 12.709 35.7109C12.709 34.9219 12.742 34.1409 12.807 33.3679" stroke="#52C459" stroke-width="2.5" stroke-miterlimit="10" stroke-linejoin="round"/>
<path d="M15.026 24.634C19.309 14.87 29.07 8 40.423 8C55.739 8 68.148 20.407 68.148 35.711C68.148 36.67 68.099 37.616 68.003 38.549" stroke="#52C459" stroke-width="2.5" stroke-miterlimit="10" stroke-linejoin="round"/>
<path d="M12.891 32.001L6 39.46" stroke="#52C459" stroke-width="2.5" stroke-linecap="round" stroke-linejoin="round"/>
<path d="M19.808 39.46L12.917 32.002" stroke="#52C459" stroke-width="2.5" stroke-linecap="round" stroke-linejoin="round"/>
<path d="M68.1641 39.46L75.0541 32.001" stroke="#52C459" stroke-width="2.5" stroke-linecap="round" stroke-linejoin="round"/>
<path d="M61.246 32L68.138 39.458" stroke="#52C459" stroke-width="2.5" stroke-linecap="round" stroke-linejoin="round"/>
</svg>
